<?xml version="1.0" encoding="utf-8"?>
<!-- Generator: Adobe Illustrator 27.7.0, SVG Export Plug-In . SVG Version: 6.00 Build 0)  -->
<svg version="1.1" id="Layer_1" xmlns="http://www.w3.org/2000/svg" xmlns:xlink="http://www.w3.org/1999/xlink" x="0px" y="0px"
	 viewBox="0 0 350.6 89.8" style="enable-background:new 0 0 350.6 89.8;" xml:space="preserve">
<style type="text/css">
	.st0{fill:#4B647F;}
	.st1{fill:#FFFFFF;}
	.st2{fill:#6386A5;}
	.st3{fill:#E2E2E2;}
</style>
<g id="Layer_2_00000102525832706545064990000017252381951451211685_">
	<g id="Layer_1-2">
		<g id="code_html5">
			<polygon class="st0" points="79.4,0 39.7,0 39.7,0 0,0 7.4,80.7 39.7,89.8 39.7,89.8 39.7,89.8 39.7,89.8 39.7,89.8 71.9,80.7 
							"/>
			<path class="st1" d="M128.2,60.7c-3.7,3.8-8.9,6-14.2,6c-11.1,0-20-9-20-20.1s9-20,20.1-20c5.3,0,10.3,2.1,14,5.8l-5.3,5.4
				c-4.9-4.9-12.8-4.9-17.7,0s-4.9,12.8,0,17.7c2.3,2.3,5.5,3.6,8.8,3.7c3.4,0.1,6.6-1.3,8.9-3.7L128.2,60.7z"/>
			<path class="st1" d="M169.6,66.7h-7.1V46.5c0-7-5.3-12.5-11.8-12.5s-11.7,5.4-11.8,12.4v20.2h-7.1v-60h7.1V31
				c3.3-2.8,7.5-4.4,11.8-4.4c10.4,0,18.8,8.9,18.9,20L169.6,66.7z"/>
			<path class="st1" d="M213.1,46.7c-0.1,11-9.2,19.8-20.1,19.7s-19.8-9.2-19.7-20.1s9.2-19.8,20.1-19.7c6.5,0.1,12.5,3.3,16.1,8.6
				l-22.4,22.5c1.8,0.9,3.8,1.4,5.8,1.4c6.9,0.1,12.5-5.4,12.6-12.2c0,0,0-0.1,0-0.1H213.1z M181.9,52.2l16.9-16.9
				C197,34.5,195,34,193,34c-6.8,0-12.4,5.6-12.4,12.4c0,0.1,0,0.2,0,0.3C180.6,48.6,181.1,50.5,181.9,52.2z"/>
			<path class="st1" d="M254.6,46.7c-0.1,11-9.1,19.8-20.1,19.7c-11-0.1-19.8-9.1-19.7-20.1s9.1-19.8,20.1-19.7
				c6.5,0.1,12.5,3.2,16.2,8.5l-22.4,22.5c1.8,0.9,3.8,1.4,5.8,1.4c6.9,0.1,12.5-5.4,12.6-12.2c0,0,0-0.1,0-0.1H254.6z M223.3,52.2
				l16.9-16.9c-1.8-0.9-3.8-1.4-5.8-1.4c-6.8,0-12.4,5.5-12.4,12.4c0,0.1,0,0.2,0,0.3C222,48.6,222.5,50.5,223.3,52.2z"/>
			<path class="st1" d="M258.1,66.7V27h7.5V31c3.5-2.9,8-4.4,12.5-4.4v7.5c-6.9,0-12.5,5.6-12.5,12.5c0,0,0,0,0,0.1v20L258.1,66.7z"
				/>
			<path class="st1" d="M278.7,46.7c0-11,9-20,20-20s20,9,20,20s-9,20-20,20l0,0c-4.5,0-8.9-1.5-12.5-4.3V86h-7.5L278.7,46.7z
				 M311.2,46.7c0-6.9-5.6-12.5-12.5-12.5s-12.5,5.6-12.5,12.5l0,0v0.1c0,6.9,5.6,12.5,12.5,12.5S311.3,53.6,311.2,46.7L311.2,46.7z
				"/>
			<path class="st0" d="M335,51.4l-10,15.2h-5.6l12.9-19.4l-12.7-19.2h5.6l9.9,15l9.9-15h5.6l-12.7,19.2l12.9,19.4H345L335,51.4z"/>
			<polygon class="st2" points="39.7,6.6 39.7,83 39.7,83 65.8,75.6 72.2,6.6 			"/>
			<path class="st3" d="M39.5,50.4c-4.3,0-7.7-3.4-7.7-7.7s3.4-7.7,7.7-7.7h0.2V19.7c-1.2,0-2.3,0-3.5,0c-0.5-0.1-1.1,0.3-1.1,0.8
				c0,0,0,0.1,0,0.1c-0.3,1.7-0.5,3.4-0.8,5c0,0.3-0.2,0.5-0.5,0.6c-0.7,0.3-1.4,0.6-2.1,0.9c-0.1,0.1-0.3,0.1-0.4,0
				c-1.2-0.9-2.4-1.9-3.7-2.8c-0.9-0.7-1.3-0.7-2.2,0c-1.7,1.4-3.2,2.9-4.5,4.6c-0.6,0.7-0.5,1,0,1.8l2.9,3.8c0.1,0.2,0.1,0.4,0,0.5
				c-0.3,0.7-0.6,1.5-0.9,2.2c-0.1,0.2-0.2,0.3-0.4,0.3c-1.6,0.2-3.1,0.5-4.7,0.7c-0.6,0-1.1,0.4-1.4,0.9v7.2
				c0.2,0.5,0.8,0.9,1.4,0.9c1.6,0.2,3.1,0.4,4.7,0.7c0.2,0,0.4,0.2,0.5,0.4c0.3,0.8,0.6,1.5,0.9,2.3c0.1,0.2,0.1,0.5,0,0.7
				c-1,1.2-1.9,2.5-2.9,3.7c-0.4,0.5-0.3,1.2,0.1,1.6c1.4,1.7,3,3.3,4.7,4.7c0.3,0.5,1,0.6,1.5,0.2c0.1,0,0.1-0.1,0.2-0.1
				c1.3-1,2.7-2,4-3c0.1-0.1,0.2-0.1,0.4,0c0.8,0.3,1.5,0.6,2.2,0.9c0.2,0,0.3,0.2,0.3,0.4c0.2,1.6,0.5,3.2,0.7,4.8
				c0,0.6,0.3,1.1,0.9,1.3h3.8V50.4H39.5z"/>
			<path class="st1" d="M61.4,38.3l-4.9-0.7c-0.2,0-0.4-0.2-0.4-0.4c-0.3-0.8-0.6-1.5-1-2.3c-0.1-0.2-0.1-0.4,0-0.6
				c1-1.2,1.9-2.5,2.9-3.8c0.4-0.5,0.4-1.2,0-1.7c-1.4-1.7-3-3.3-4.7-4.8c-0.4-0.5-1.1-0.5-1.5-0.2c0,0-0.1,0.1-0.1,0.1l-4,3
				c-0.1,0.1-0.3,0.1-0.4,0.1c-0.8-0.3-1.5-0.6-2.2-0.9c-0.2,0-0.3-0.2-0.3-0.4c-0.2-1.7-0.5-3.4-0.8-5.1c0-0.6-0.5-1.1-1.1-1.1
				c0,0-0.1,0-0.1,0c-1,0-2,0-3.1,0V35c4.2,0,7.7,3.4,7.7,7.7s-3.4,7.7-7.7,7.7v15.4h3.5c0.5-0.2,0.8-0.7,0.8-1.2
				c0.2-1.6,0.5-3.2,0.7-4.8c0-0.2,0.2-0.4,0.3-0.5c0.7-0.3,1.5-0.6,2.2-0.9c0.1-0.1,0.3-0.1,0.4,0c1.2,0.9,2.4,1.9,3.6,2.8
				c0.9,0.7,1.3,0.7,2.2,0c1.7-1.4,3.2-2.9,4.6-4.6c0.6-0.7,0.5-1,0-1.8L55.2,51c-0.2-0.2-0.2-0.4-0.1-0.6c0.3-0.7,0.6-1.5,1-2.2
				c0.1-0.1,0.2-0.2,0.3-0.3c1.7-0.3,3.4-0.5,5.1-0.8c0.6,0,1.1-0.5,1.1-1.2c0,0,0,0,0-0.1c0-2.1,0-4.2,0-6.3c0.1-0.6-0.4-1.2-1-1.3
				C61.5,38.3,61.5,38.3,61.4,38.3z"/>
		</g>
	</g>
</g>
</svg>
