<?xml version="1.0" encoding="UTF-8"?>
<svg id="Guides" xmlns="http://www.w3.org/2000/svg" viewBox="0 0 107.35 35.32">
  <defs>
    <style>
      .cls-1 {
        fill: #E62755;
      }

      .cls-2 {
        fill: #ffffff;
      }
    </style>
  </defs>
  <path class="cls-2" d="m0,27.54V.61h4.78v22.34h8.62v4.58H0Z"/>
  <path class="cls-2" d="m12.88,27.54V.61h13.16v4.48h-8.42v6.22h7.84v4.27h-7.84v7.41h8.62v4.54h-13.36Z"/>
  <path class="cls-2" d="m24.12,27.54L29.9.61h6.41l5.83,26.92h-5.14l-1.26-6.77h-5.49l-1.23,6.77h-4.88Zm6.86-10.8h4.06l-2.05-11.29-2.01,11.29Z"/>
  <path class="cls-2" d="m40.89,27.54V.61h4.91l6.67,18.83-.13-18.83h4.51v26.92h-4.88l-6.72-18.86.13,18.86h-4.49Z"/>
  <path class="cls-2" d="m73.34,27.54V.61h4.91l6.67,18.83-.13-18.83h4.51v26.92h-4.88l-6.72-18.86.13,18.86h-4.49Z"/>
  <path class="cls-2" d="m103.61,27.54l-.35-2.97c-.49,1.29-1.16,2.22-2,2.78-.85.56-2.02.84-3.5.84-2.69,0-4.57-1.07-5.67-3.2-1.09-2.13-1.64-6.04-1.64-11.73,0-2.66.13-4.79.39-6.39.26-1.6.67-2.84,1.22-3.71.67-1.07,1.55-1.87,2.65-2.38,1.1-.51,2.46-.77,4.09-.77,2.75,0,4.78.68,6.08,2.05,1.3,1.36,1.96,3.49,1.96,6.36v.68h-4.46v-.28c0-1.61-.29-2.82-.86-3.64-.57-.82-1.42-1.23-2.55-1.23-1.39,0-2.34.56-2.85,1.68-.51,1.12-.77,4.09-.77,8.9,0,3.8.24,6.34.73,7.62.49,1.28,1.37,1.92,2.65,1.92s2.17-.46,2.71-1.36c.54-.91.81-2.45.81-4.62v-.93h-3.31v-4.3h7.91v14.69h-3.23Z"/>
  <g>
    <path class="cls-2" d="m72.19,33.92c-.06.01-.12.02-.19.03-.06,0-.14,0-.22,0-.3,0-.51-.06-.62-.18-.11-.12-.17-.41-.17-.87v-2.76h-.5v-.37h.5v-1.16h.52v1.16h.67v.37h-.67v2.85c0,.28.03.45.09.51.06.06.17.1.33.1.03,0,.07,0,.12,0,.04,0,.09,0,.15-.02v.34Z"/>
    <path class="cls-2" d="m75.37,32.58c-.03.47-.17.82-.42,1.06-.25.25-.59.37-1.03.37-.5,0-.87-.18-1.11-.53-.24-.35-.36-.9-.36-1.63s.12-1.28.37-1.64c.25-.35.63-.53,1.14-.53.47,0,.82.15,1.06.45.24.3.36.74.36,1.33v.35h-2.37v.23c0,.53.07.93.22,1.19.15.26.38.39.67.39.27,0,.49-.09.65-.27.16-.18.24-.44.26-.77h.54Zm-2.34-1.14h1.81s0-.05,0-.09c0-.04,0-.07,0-.09,0-.38-.08-.68-.23-.88-.16-.21-.37-.31-.66-.31-.3,0-.54.11-.7.34-.16.23-.24.56-.24.99v.04Z"/>
    <path class="cls-2" d="m78.93,32.49c-.04.5-.18.88-.42,1.13-.25.26-.58.38-1.01.38-.49,0-.87-.18-1.12-.55-.25-.37-.38-.91-.38-1.62s.13-1.26.39-1.62c.26-.36.64-.54,1.15-.54.4,0,.72.11.96.34.24.23.37.54.39.94h-.52c-.01-.27-.09-.48-.24-.64-.15-.16-.34-.24-.58-.24-.32,0-.56.15-.73.46-.17.3-.26.74-.26,1.31s.09.99.26,1.3c.17.31.41.47.71.47.26,0,.46-.1.62-.29.15-.2.24-.47.27-.82h.53Z"/>
    <path class="cls-2" d="m79.5,33.89v-5.59h.54v1.88c.13-.17.3-.29.51-.38.2-.09.43-.13.67-.13.4,0,.69.1.88.31.18.21.27.54.27.99v2.92h-.54v-2.78c0-.42-.06-.7-.17-.84-.11-.14-.31-.21-.59-.21-.26,0-.5.07-.71.21-.21.14-.31.3-.31.47v3.14h-.54Z"/>
    <path class="cls-2" d="m85.47,33.89v-2.78c0-.43-.05-.72-.16-.85-.11-.13-.3-.2-.59-.2-.26,0-.5.07-.71.22-.21.14-.32.3-.32.46v3.14h-.54v-4.12h.49v.45c.16-.19.35-.33.54-.42.2-.09.42-.13.67-.13.41,0,.7.1.89.31.19.21.28.54.28.99v2.92h-.54Z"/>
    <path class="cls-2" d="m86.63,31.85c0-.72.13-1.27.4-1.63.27-.36.67-.54,1.2-.54s.93.18,1.2.54c.27.36.4.9.4,1.63s-.13,1.26-.4,1.62c-.26.36-.66.54-1.2.54s-.94-.18-1.2-.54c-.26-.36-.4-.9-.4-1.62Zm.57,0c0,.58.09,1.02.26,1.32.17.3.43.44.77.44s.6-.15.77-.45c.17-.3.26-.74.26-1.31s-.09-1.02-.26-1.32c-.17-.3-.43-.45-.77-.45s-.59.15-.77.44c-.17.3-.26.74-.26,1.32Z"/>
    <path class="cls-2" d="m90.66,33.89v-5.59h.54v5.59h-.54Z"/>
    <path class="cls-2" d="m92.03,31.85c0-.72.13-1.27.4-1.63.27-.36.67-.54,1.2-.54s.93.18,1.2.54.4.9.4,1.63-.13,1.26-.4,1.62c-.26.36-.66.54-1.2.54s-.94-.18-1.2-.54c-.26-.36-.4-.9-.4-1.62Zm.57,0c0,.58.09,1.02.26,1.32.17.3.43.44.77.44s.6-.15.77-.45c.17-.3.26-.74.26-1.31s-.09-1.02-.26-1.32c-.17-.3-.43-.45-.77-.45s-.59.15-.77.44c-.17.3-.26.74-.26,1.32Z"/>
    <path class="cls-2" d="m98.29,33.53c-.12.17-.27.29-.44.37-.17.08-.38.12-.61.12-.51,0-.89-.18-1.14-.54-.25-.36-.38-.91-.38-1.65s.12-1.3.36-1.64c.24-.34.62-.52,1.14-.52.22,0,.42.04.6.13.17.09.33.22.48.41v-.42h.53v3.83c0,.63-.12,1.08-.37,1.33-.24.25-.66.38-1.25.38-.37,0-.68-.09-.93-.27-.25-.18-.38-.41-.41-.69h.53c.04.19.13.33.29.42.16.09.37.14.64.14.32,0,.56-.09.72-.28.16-.18.25-.45.25-.8v-.32Zm0-1.68c0-.65-.08-1.11-.24-1.39-.16-.28-.42-.41-.78-.41s-.6.14-.76.42c-.16.28-.23.74-.23,1.37s.08,1.07.24,1.36c.16.29.42.43.77.43s.61-.13.76-.41.23-.73.23-1.37Z"/>
    <path class="cls-2" d="m99.76,29.02v-.71h.6v.71h-.6Zm.02,4.88v-4.12h.55v4.12h-.55Z"/>
    <path class="cls-2" d="m104.04,32.58c-.03.47-.17.82-.42,1.06-.25.25-.59.37-1.03.37-.5,0-.87-.18-1.11-.53-.24-.35-.36-.9-.36-1.63s.12-1.28.37-1.64c.25-.35.63-.53,1.14-.53.47,0,.82.15,1.06.45.24.3.36.74.36,1.33v.35h-2.37v.23c0,.53.07.93.22,1.19.15.26.37.39.67.39.27,0,.49-.09.65-.27.16-.18.24-.44.26-.77h.54Zm-2.34-1.14h1.81s0-.05,0-.09c0-.04,0-.07,0-.09,0-.38-.08-.68-.23-.88s-.37-.31-.66-.31c-.3,0-.54.11-.7.34-.16.23-.24.56-.24.99v.04Z"/>
    <path class="cls-2" d="m104.47,32.78h.51c0,.27.08.48.23.63.16.15.38.22.68.22s.51-.07.67-.2c.16-.14.25-.32.25-.55,0-.35-.37-.69-1.1-1-.07-.03-.13-.05-.17-.07-.39-.17-.65-.33-.77-.49-.12-.15-.19-.37-.19-.64,0-.3.11-.54.34-.72.22-.18.52-.27.89-.27.45,0,.78.09,1.01.28.23.19.35.47.37.86h-.5c-.04-.26-.13-.45-.26-.58-.14-.13-.32-.19-.56-.19s-.44.05-.58.17c-.14.11-.21.26-.21.45,0,.32.4.65,1.21.99.09.04.17.07.22.09.27.12.48.27.63.46.15.19.22.41.22.65,0,.35-.13.63-.4.84-.27.21-.62.32-1.05.32-.46,0-.81-.1-1.06-.31-.25-.21-.37-.5-.37-.89v-.04Z"/>
  </g>
  <g>
    <path class="cls-1" d="m64.4,31.69h-6.36L64.23.61h6.36l-6.19,31.08Z"/>
    <path class="cls-1" d="m52.67,31.71s1.05-.57,2.62-.98c.39-.11.82-.22,1.27-.29.45-.09.93-.19,1.42-.23.49-.04,1-.14,1.52-.14.52-.02,1.04-.04,1.57-.06.52.02,1.05.04,1.57.06.52,0,1.02.1,1.52.15.49.04.97.15,1.42.23.45.07.88.19,1.27.29,1.57.4,2.62.97,2.62.97v.2s-4.2.05-8.39.1c-4.2-.05-8.39-.1-8.39-.1v-.2Z"/>
  </g>
</svg>
