<?xml version="1.0" encoding="UTF-8"?>
<svg id="Logotype" xmlns="http://www.w3.org/2000/svg" viewBox="0 0 76.9 30.35">
  <defs>
    <style>
      .cls-1 {
        fill: #e52856;
      }

      .cls-2 {
        fill: #4d4d4f;
      }

      .cls-3 {
        fill: #4d4d4f;
      }
    </style>
  </defs>
  <g>
    <path class="cls-3" d="m36.69,19.24V6.13h3.44v13.26c0,.76.34,1,.62,1,.13,0,.23,0,.42-.05l.41,2.6c-.38.17-.94.29-1.73.29-2.36,0-3.17-1.58-3.17-3.99Z"/>
    <path class="cls-3" d="m42.61,19.64c0-2.51,1.95-3.87,6.54-4.36-.07-1.04-.58-1.72-1.83-1.72-.97,0-1.95.42-3.07,1.08l-1.22-2.32c1.47-.92,3.13-1.57,4.96-1.57,2.97,0,4.61,1.74,4.61,5.39v6.81h-2.8l-.25-1.22h-.08c-.98.88-2.07,1.51-3.38,1.51-2.12,0-3.46-1.58-3.46-3.59Zm6.54-.16v-2.08c-2.45.34-3.24,1.06-3.24,1.96,0,.77.51,1.14,1.33,1.14s1.3-.4,1.91-1.02Z"/>
    <path class="cls-3" d="m58.3,21.67h-.08l-.29,1.27h-2.69V6.13h3.44v4.11l-.09,1.83c.88-.81,1.98-1.32,3.07-1.32,2.81,0,4.55,2.38,4.55,6.04,0,4.11-2.37,6.45-4.88,6.45-1.04,0-2.11-.54-3.03-1.56Zm4.39-4.83c0-2.14-.64-3.21-2.02-3.21-.71,0-1.32.32-1.99,1.07v4.89c.62.56,1.27.75,1.85.75,1.2,0,2.16-1.04,2.16-3.5Z"/>
    <path class="cls-3" d="m67.26,21.57l1.55-2.2c1.05.82,2.02,1.25,2.99,1.25,1.02,0,1.47-.4,1.47-1.02,0-.78-1.15-1.14-2.34-1.62-1.42-.56-3.07-1.53-3.07-3.5,0-2.22,1.76-3.73,4.43-3.73,1.78,0,3.1.74,4.09,1.51l-1.54,2.12c-.83-.62-1.64-1.02-2.44-1.02-.89,0-1.33.36-1.33.95,0,.76,1.09,1.05,2.29,1.5,1.47.56,3.13,1.41,3.13,3.58s-1.66,3.84-4.77,3.84c-1.53,0-3.28-.68-4.46-1.66Z"/>
  </g>
  <g id="Lt_" data-name="Lt/">
    <g id="Mark">
      <path class="cls-1" d="m28.05,26.48h-4.63L27.92,3.93h4.63l-4.5,22.55Z"/>
      <path class="cls-1" d="m19.5,26.46c3.73-2.32,8.51-2.3,12.25,0,0,0,0,.2,0,.2-4.08.12-8.16.12-12.25,0,0,0,0-.2,0-.2h0Z"/>
    </g>
    <path id="L" class="cls-3" d="m3.03,22.42V3.66h3.6v15.31h6.49v3.45H3.03Z"/>
    <path class="cls-2" d="m18.19,22.57c-1.16,0-1.97-.23-2.49-.71-.56-.52-.81-1.42-.81-2.92v-5.86h-1.45v-2.96h1.45v-2.9h3.56v2.9h1.95v2.96h-1.95v6.08c0,.22,0,.38.02.49.04,0,.09,0,.15,0,.07,0,.16,0,.26-.01.11,0,1.18-.13,1.18-.13l.33-.04v2.85l-.86.14c-.2.04-.42.06-.63.08-.2.02-.44.03-.71.03Z"/>
  </g>
</svg>
