<?xml version="1.0" encoding="utf-8"?>
<!-- Generator: Adobe Illustrator 27.8.1, SVG Export Plug-In . SVG Version: 6.00 Build 0)  -->
<svg version="1.1" id="Layer_1" xmlns="http://www.w3.org/2000/svg" xmlns:xlink="http://www.w3.org/1999/xlink" x="0px" y="0px"
	 viewBox="0 0 100 100" style="enable-background:new 0 0 100 100;" xml:space="preserve">
<style type="text/css">
	.st0{fill:#292524;}
</style>
<g>
	<path class="st0" d="M35.2,35.2c1.2-1.2,3.1-2.9,4.3-4l-0.1-0.1c-1.5,0.6-3.1,1.1-4.6,1.6l-6.5,1.6l10,10L35,47.6L20.9,33.5l3-3
		l17.8-4.4l5.2,5.2L28.5,49.9l-4-4L35.2,35.2z"/>
	<path class="st0" d="M41.7,44.5c6.3-6.3,12.1-6.9,16.1-2.9c4,4,3.4,9.8-2.9,16.1c-6.3,6.3-12.3,7-16.3,3.1
		C34.7,56.8,35.4,50.8,41.7,44.5z M50.9,53.6c5-5,5.1-7.3,3.6-8.8c-1.4-1.4-3.7-1.4-8.8,3.6c-5,5-5.2,7.5-3.8,8.9
		C43.4,58.9,45.8,58.7,50.9,53.6z"/>
	<path class="st0" d="M65.9,65.9c1.2-1.2,3.1-2.9,4.3-4l-0.1-0.1c-1.5,0.6-3.1,1.1-4.6,1.6L59,65.1l10,10l-3.3,3.3L51.6,64.2l3-3
		l17.8-4.4l5.2,5.2L59.2,80.6l-4-4L65.9,65.9z"/>
</g>
</svg>
