<svg width="978" height="444" viewBox="0 0 978 444" fill="none" xmlns="http://www.w3.org/2000/svg">
<g opacity="0.1">
<path d="M0.875094 0H2.12509V443.75H0.875094V0Z" fill="url(#gradient0)"/>
<path d="M82.1251 0H83.3751V443.75H82.1251V0Z" fill="url(#gradient1)"/>
<path d="M163.375 0H164.625V443.75H163.375V0Z" fill="url(#gradient2)"/>
<path d="M244.625 0H245.875V443.75H244.625V0Z" fill="url(#gradient3)"/>
<path d="M325.875 0H327.125V443.75H325.875V0Z" fill="url(#gradient4)"/>
<path d="M407.125 0H408.375V443.75H407.125V0Z" fill="url(#gradient5)"/>
<path d="M488.375 0H489.625V443.75H488.375V0Z" fill="url(#gradient6)"/>
<path d="M569.625 0H570.875V443.75H569.625V0Z" fill="url(#gradient7)"/>
<path d="M650.875 0H652.125V443.75H650.875V0Z" fill="url(#gradient8)"/>
<path d="M650.875 0V1.25004L0.875018 1.25002L0.875094 0H650.875Z" fill="url(#gradient9)"/>
<path d="M650.875 81.25V82.5L0.875014 82.5L0.875014 81.25L650.875 81.25Z" fill="url(#gradient10)"/>
<path d="M650.875 162.5V163.75L0.875011 163.75L0.875011 162.5L650.875 162.5Z" fill="url(#gradient11)"/>
<path d="M650.875 243.75V245L0.875007 245L0.875007 243.75L650.875 243.75Z" fill="url(#gradient12)"/>
<path d="M650.875 325V326.25L0.875004 326.25L0.875004 325L650.875 325Z" fill="url(#gradient13)"/>
<path d="M650.875 406.25V407.5L0.875 407.5L0.875 406.25L650.875 406.25Z" fill="url(#gradient14)"/>
<path d="M325.875 0H327.125V443.75H325.875V0Z" fill="url(#gradient15)"/>
<path d="M407.125 0H408.375V443.75H407.125V0Z" fill="url(#gradient16)"/>
<path d="M488.375 0H489.625V443.75H488.375V0Z" fill="url(#gradient17)"/>
<path d="M569.625 0H570.875V443.75H569.625V0Z" fill="url(#gradient18)"/>
<path d="M650.875 0H652.125V443.75H650.875V0Z" fill="url(#gradient19)"/>
<path d="M732.125 0H733.375V443.75H732.125V0Z" fill="url(#gradient20)"/>
<path d="M813.375 0H814.625V443.75H813.375V0Z" fill="url(#gradient21)"/>
<path d="M894.625 0H895.875V443.75H894.625V0Z" fill="url(#gradient22)"/>
<path d="M975.875 0H977.125V443.75H975.875V0Z" fill="url(#gradient23)"/>
<path d="M975.875 0V1.25004L325.875 1.25002V0H975.875Z" fill="url(#gradient24)"/>
<path d="M975.875 81.25V82.5L325.875 82.5V81.25L975.875 81.25Z" fill="url(#gradient25)"/>
<path d="M975.875 162.5V163.75L325.875 163.75V162.5L975.875 162.5Z" fill="url(#gradient26)"/>
<path d="M975.875 243.75V245L325.875 245V243.75L975.875 243.75Z" fill="url(#gradient27)"/>
<path d="M975.875 325V326.25L325.875 326.25V325L975.875 325Z" fill="url(#gradient28)"/>
<path d="M975.875 406.25V407.5L325.875 407.5V406.25L975.875 406.25Z" fill="url(#gradient29)"/>
</g>
<defs>
<radialGradient id="gradient0" cx="0" cy="0" r="1" gradientUnits="userSpaceOnUse" gradientTransform="translate(397.5 -142) rotate(46.2462) scale(503.933 441.041)">
<stop stop-color="#44403c"/>
<stop offset="1" stop-color="white" stop-opacity="0"/>
</radialGradient>
<radialGradient id="gradient1" cx="0" cy="0" r="1" gradientUnits="userSpaceOnUse" gradientTransform="translate(397.5 -142) rotate(46.2462) scale(503.933 441.041)">
<stop stop-color="#44403c"/>
<stop offset="1" stop-color="white" stop-opacity="0"/>
</radialGradient>
<radialGradient id="gradient2" cx="0" cy="0" r="1" gradientUnits="userSpaceOnUse" gradientTransform="translate(397.5 -142) rotate(46.2462) scale(503.933 441.041)">
<stop stop-color="#44403c"/>
<stop offset="1" stop-color="white" stop-opacity="0"/>
</radialGradient>
<radialGradient id="gradient3" cx="0" cy="0" r="1" gradientUnits="userSpaceOnUse" gradientTransform="translate(397.5 -142) rotate(46.2462) scale(503.933 441.041)">
<stop stop-color="#44403c"/>
<stop offset="1" stop-color="white" stop-opacity="0"/>
</radialGradient>
<radialGradient id="gradient4" cx="0" cy="0" r="1" gradientUnits="userSpaceOnUse" gradientTransform="translate(397.5 -142) rotate(46.2462) scale(503.933 441.041)">
<stop stop-color="#44403c"/>
<stop offset="1" stop-color="white" stop-opacity="0"/>
</radialGradient>
<radialGradient id="gradient5" cx="0" cy="0" r="1" gradientUnits="userSpaceOnUse" gradientTransform="translate(397.5 -142) rotate(46.2462) scale(503.933 441.041)">
<stop stop-color="#44403c"/>
<stop offset="1" stop-color="white" stop-opacity="0"/>
</radialGradient>
<radialGradient id="gradient6" cx="0" cy="0" r="1" gradientUnits="userSpaceOnUse" gradientTransform="translate(397.5 -142) rotate(46.2462) scale(503.933 441.041)">
<stop stop-color="#44403c"/>
<stop offset="1" stop-color="white" stop-opacity="0"/>
</radialGradient>
<radialGradient id="gradient7" cx="0" cy="0" r="1" gradientUnits="userSpaceOnUse" gradientTransform="translate(397.5 -142) rotate(46.2462) scale(503.933 441.041)">
<stop stop-color="#44403c"/>
<stop offset="1" stop-color="white" stop-opacity="0"/>
</radialGradient>
<radialGradient id="gradient8" cx="0" cy="0" r="1" gradientUnits="userSpaceOnUse" gradientTransform="translate(397.5 -142) rotate(46.2462) scale(503.933 441.041)">
<stop stop-color="#44403c"/>
<stop offset="1" stop-color="white" stop-opacity="0"/>
</radialGradient>
<radialGradient id="gradient9" cx="0" cy="0" r="1" gradientUnits="userSpaceOnUse" gradientTransform="translate(397.5 -142) rotate(46.2462) scale(503.933 441.041)">
<stop stop-color="#44403c"/>
<stop offset="1" stop-color="white" stop-opacity="0"/>
</radialGradient>
<radialGradient id="gradient10" cx="0" cy="0" r="1" gradientUnits="userSpaceOnUse" gradientTransform="translate(397.5 -142) rotate(46.2462) scale(503.933 441.041)">
<stop stop-color="#44403c"/>
<stop offset="1" stop-color="white" stop-opacity="0"/>
</radialGradient>
<radialGradient id="gradient11" cx="0" cy="0" r="1" gradientUnits="userSpaceOnUse" gradientTransform="translate(397.5 -142) rotate(46.2462) scale(503.933 441.041)">
<stop stop-color="#44403c"/>
<stop offset="1" stop-color="white" stop-opacity="0"/>
</radialGradient>
<radialGradient id="gradient12" cx="0" cy="0" r="1" gradientUnits="userSpaceOnUse" gradientTransform="translate(397.5 -142) rotate(46.2462) scale(503.933 441.041)">
<stop stop-color="#44403c"/>
<stop offset="1" stop-color="white" stop-opacity="0"/>
</radialGradient>
<radialGradient id="gradient13" cx="0" cy="0" r="1" gradientUnits="userSpaceOnUse" gradientTransform="translate(397.5 -142) rotate(46.2462) scale(503.933 441.041)">
<stop stop-color="#44403c"/>
<stop offset="1" stop-color="white" stop-opacity="0"/>
</radialGradient>
<radialGradient id="gradient14" cx="0" cy="0" r="1" gradientUnits="userSpaceOnUse" gradientTransform="translate(397.5 -142) rotate(46.2462) scale(503.933 441.041)">
<stop stop-color="#44403c"/>
<stop offset="1" stop-color="white" stop-opacity="0"/>
</radialGradient>
<radialGradient id="gradient15" cx="0" cy="0" r="1" gradientUnits="userSpaceOnUse" gradientTransform="translate(397.5 -142) rotate(46.2462) scale(503.933 441.041)">
<stop stop-color="#44403c"/>
<stop offset="1" stop-color="white" stop-opacity="0"/>
</radialGradient>
<radialGradient id="gradient16" cx="0" cy="0" r="1" gradientUnits="userSpaceOnUse" gradientTransform="translate(397.5 -142) rotate(46.2462) scale(503.933 441.041)">
<stop stop-color="#44403c"/>
<stop offset="1" stop-color="white" stop-opacity="0"/>
</radialGradient>
<radialGradient id="gradient17" cx="0" cy="0" r="1" gradientUnits="userSpaceOnUse" gradientTransform="translate(397.5 -142) rotate(46.2462) scale(503.933 441.041)">
<stop stop-color="#44403c"/>
<stop offset="1" stop-color="white" stop-opacity="0"/>
</radialGradient>
<radialGradient id="gradient18" cx="0" cy="0" r="1" gradientUnits="userSpaceOnUse" gradientTransform="translate(397.5 -142) rotate(46.2462) scale(503.933 441.041)">
<stop stop-color="#44403c"/>
<stop offset="1" stop-color="white" stop-opacity="0"/>
</radialGradient>
<radialGradient id="gradient19" cx="0" cy="0" r="1" gradientUnits="userSpaceOnUse" gradientTransform="translate(397.5 -142) rotate(46.2462) scale(503.933 441.041)">
<stop stop-color="#44403c"/>
<stop offset="1" stop-color="white" stop-opacity="0"/>
</radialGradient>
<radialGradient id="gradient20" cx="0" cy="0" r="1" gradientUnits="userSpaceOnUse" gradientTransform="translate(397.5 -142) rotate(46.2462) scale(503.933 441.041)">
<stop stop-color="#44403c"/>
<stop offset="1" stop-color="white" stop-opacity="0"/>
</radialGradient>
<radialGradient id="gradient21" cx="0" cy="0" r="1" gradientUnits="userSpaceOnUse" gradientTransform="translate(397.5 -142) rotate(46.2462) scale(503.933 441.041)">
<stop stop-color="#44403c"/>
<stop offset="1" stop-color="white" stop-opacity="0"/>
</radialGradient>
<radialGradient id="gradient22" cx="0" cy="0" r="1" gradientUnits="userSpaceOnUse" gradientTransform="translate(397.5 -142) rotate(46.2462) scale(503.933 441.041)">
<stop stop-color="#44403c"/>
<stop offset="1" stop-color="white" stop-opacity="0"/>
</radialGradient>
<radialGradient id="gradient23" cx="0" cy="0" r="1" gradientUnits="userSpaceOnUse" gradientTransform="translate(397.5 -142) rotate(46.2462) scale(503.933 441.041)">
<stop stop-color="#44403c"/>
<stop offset="1" stop-color="white" stop-opacity="0"/>
</radialGradient>
<radialGradient id="gradient24" cx="0" cy="0" r="1" gradientUnits="userSpaceOnUse" gradientTransform="translate(397.5 -142) rotate(46.2462) scale(503.933 441.041)">
<stop stop-color="#44403c"/>
<stop offset="1" stop-color="white" stop-opacity="0"/>
</radialGradient>
<radialGradient id="gradient25" cx="0" cy="0" r="1" gradientUnits="userSpaceOnUse" gradientTransform="translate(397.5 -142) rotate(46.2462) scale(503.933 441.041)">
<stop stop-color="#44403c"/>
<stop offset="1" stop-color="white" stop-opacity="0"/>
</radialGradient>
<radialGradient id="gradient26" cx="0" cy="0" r="1" gradientUnits="userSpaceOnUse" gradientTransform="translate(397.5 -142) rotate(46.2462) scale(503.933 441.041)">
<stop stop-color="#44403c"/>
<stop offset="1" stop-color="white" stop-opacity="0"/>
</radialGradient>
<radialGradient id="gradient27" cx="0" cy="0" r="1" gradientUnits="userSpaceOnUse" gradientTransform="translate(397.5 -142) rotate(46.2462) scale(503.933 441.041)">
<stop stop-color="#44403c"/>
<stop offset="1" stop-color="white" stop-opacity="0"/>
</radialGradient>
<radialGradient id="gradient28" cx="0" cy="0" r="1" gradientUnits="userSpaceOnUse" gradientTransform="translate(397.5 -142) rotate(46.2462) scale(503.933 441.041)">
<stop stop-color="#44403c"/>
<stop offset="1" stop-color="white" stop-opacity="0"/>
</radialGradient>
<radialGradient id="gradient29" cx="0" cy="0" r="1" gradientUnits="userSpaceOnUse" gradientTransform="translate(397.5 -142) rotate(46.2462) scale(503.933 441.041)">
<stop stop-color="#44403c"/>
<stop offset="1" stop-color="white" stop-opacity="0"/>
</radialGradient>
</defs>
</svg>
