<svg xmlns="http://www.w3.org/2000/svg" viewBox="0 0 350.61 89.83"><defs><style>.cls-1{fill:#4b647f;}.cls-2{fill:#231f20;}.cls-3{fill:#6386a5;}.cls-4{fill:#e2e2e2;}.cls-5{fill:#fff;}</style></defs><g id="Layer_2" data-name="Layer 2"><g id="Layer_1-2" data-name="Layer 1"><g id="code_html5"><polygon class="cls-1" points="79.37 0 39.69 0 39.69 0 0 0 7.44 80.69 39.69 89.83 39.69 89.83 39.69 89.83 39.69 89.83 39.69 89.83 71.92 80.69 79.37 0"/><path class="cls-2" d="M128.22,64.23a19.76,19.76,0,0,1-14.22,6,20.07,20.07,0,1,1,14.14-34.36l-5.3,5.38A12.51,12.51,0,1,0,114,62.62a12.1,12.1,0,0,0,8.92-3.69Z" transform="translate(0 -3.55)"/><path class="cls-2" d="M169.61,70.25h-7.09V50.1c0-7-5.28-12.53-11.77-12.53S139.05,43,139,49.94V70.17h-7.09v-60H139v24.4a18.09,18.09,0,0,1,11.78-4.41c10.41,0,18.79,8.91,18.86,20Z" transform="translate(0 -3.55)"/><path class="cls-2" d="M213.13,50.26A19.91,19.91,0,1,1,209.6,38.7L187.2,61.18A12.84,12.84,0,0,0,193,62.62a12.42,12.42,0,0,0,12.6-12.36ZM181.9,55.8l16.86-16.86A13.1,13.1,0,0,0,193,37.57a12.4,12.4,0,0,0-12.37,12.69A13.06,13.06,0,0,0,181.9,55.8Z" transform="translate(0 -3.55)"/><path class="cls-2" d="M254.56,50.26A19.91,19.91,0,1,1,251,38.7l-22.4,22.48a12.84,12.84,0,0,0,5.78,1.44A12.42,12.42,0,0,0,247,50.26ZM223.33,55.8l16.86-16.86a13.1,13.1,0,0,0-5.78-1.37A12.4,12.4,0,0,0,222,50.26,12.91,12.91,0,0,0,223.33,55.8Z" transform="translate(0 -3.55)"/><path class="cls-2" d="M258.09,70.25V30.51h7.55V34.6a20,20,0,0,1,12.52-4.41v7.54a12.5,12.5,0,0,0-12.52,12.53v20Z" transform="translate(0 -3.55)"/><path class="cls-2" d="M278.73,50.26a20,20,0,1,1,20,20,19.7,19.7,0,0,1-12.45-4.33v23.6h-7.54Zm32.51,0a12.49,12.49,0,1,0-25,0v.08a12.49,12.49,0,1,0,25-.08Z" transform="translate(0 -3.55)"/><path class="cls-1" d="M335,55l-10,15.25h-5.62l12.87-19.43-12.7-19.2h5.63l9.86,15,9.86-15h5.62l-12.7,19.2,12.88,19.43H345Z" transform="translate(0 -3.55)"/><polygon class="cls-3" points="39.69 6.57 39.69 82.99 39.69 82.99 65.8 75.59 72.16 6.57 39.69 6.57"/><path class="cls-4" d="M39.52,54a7.7,7.7,0,1,1,0-15.4h.17V23.21c-1.16,0-2.31,0-3.46,0a1,1,0,0,0-1.15.95c-.29,1.68-.55,3.36-.79,5.05a.61.61,0,0,1-.45.57c-.72.27-1.42.6-2.13.89a.48.48,0,0,1-.39,0q-1.84-1.41-3.66-2.83c-.88-.7-1.28-.71-2.2.05a34.62,34.62,0,0,0-4.54,4.6c-.57.7-.55,1,0,1.76L23.84,38a.42.42,0,0,1,0,.52c-.33.73-.65,1.45-.94,2.2a.45.45,0,0,1-.4.33c-1.57.23-3.13.5-4.7.69a1.59,1.59,0,0,0-1.4.89v7.22a1.45,1.45,0,0,0,1.35.9c1.56.2,3.11.44,4.66.67a.53.53,0,0,1,.49.4c.28.77.6,1.53.94,2.28a.54.54,0,0,1-.05.65c-1,1.23-1.93,2.48-2.88,3.73A1.26,1.26,0,0,0,21,60.12a45.34,45.34,0,0,0,4.67,4.73,1.08,1.08,0,0,0,1.67.1c1.34-1,2.67-2,4-3a.48.48,0,0,1,.37-.05c.76.3,1.5.63,2.25.92a.39.39,0,0,1,.29.36c.24,1.61.51,3.22.73,4.84a1.42,1.42,0,0,0,.88,1.32h3.79V54Z" transform="translate(0 -3.55)"/><path class="cls-5" d="M61.39,41.86l-4.88-.73a.5.5,0,0,1-.43-.37q-.45-1.17-1-2.31a.48.48,0,0,1,.05-.59c1-1.24,1.94-2.5,2.9-3.76A1.23,1.23,0,0,0,58,32.45a49.11,49.11,0,0,0-4.68-4.78,1.1,1.1,0,0,0-1.64-.08l-4,3a.54.54,0,0,1-.41.06c-.75-.29-1.47-.62-2.22-.91a.4.4,0,0,1-.31-.38c-.25-1.7-.52-3.39-.78-5.09a1.08,1.08,0,0,0-1.19-1.05c-1,0-2,0-3.06,0V38.58a7.69,7.69,0,0,1,0,15.38V69.34h3.5A1.45,1.45,0,0,0,44,68.09c.24-1.62.5-3.23.73-4.84a.5.5,0,0,1,.35-.45c.74-.28,1.46-.62,2.2-.92a.56.56,0,0,1,.42,0c1.2.92,2.4,1.86,3.6,2.8.9.72,1.32.74,2.23,0a35.07,35.07,0,0,0,4.57-4.63c.56-.69.54-1,0-1.76L55.2,54.6a.49.49,0,0,1-.06-.59c.34-.72.63-1.46,1-2.18a.5.5,0,0,1,.32-.27c1.68-.27,3.37-.53,5.06-.78a1.13,1.13,0,0,0,1.09-1.23c0-2.11,0-4.23,0-6.34A1.18,1.18,0,0,0,61.39,41.86Z" transform="translate(0 -3.55)"/></g></g></g></svg>