<?xml version="1.0" encoding="utf-8"?>
<svg version="1.1" xmlns="http://www.w3.org/2000/svg"
	xmlns:xlink="http://www.w3.org/1999/xlink" x="0px" y="0px"
	viewBox="0 0 410 253" style="enable-background:new 0 0 410 253;" xml:space="preserve">
<style type="text/css">
	.st0{fill:#231F20;}
	.st1{fill:#FF7C00;}
	.st2{fill:#E2E2E2;}
	.st3{fill:#FF910D;}
	.st4{fill:#FFFFFF;}
	
	.st5 {
		opacity: 0.4;
	}

	#spinner > g {
		--time: 0.4s;
		animation: fade var(--time) infinite;
	}
	#spinner > g:nth-child(1) { animation-delay: calc(var(--time) * 1 / 8); }
	#spinner > g:nth-child(2) { animation-delay: calc(var(--time) * 2 / 8); }
	#spinner > g:nth-child(3) { animation-delay: calc(var(--time) * 3 / 8); }
	#spinner > g:nth-child(4) { animation-delay: calc(var(--time) * 4 / 8); }
	#spinner > g:nth-child(5) { animation-delay: calc(var(--time) * 5 / 8); }
	#spinner > g:nth-child(6) { animation-delay: calc(var(--time) * 6 / 8); }
	#spinner > g:nth-child(7) { animation-delay: calc(var(--time) * 7 / 8); }

	@keyframes fade {
		0% {
			opacity: 0;
		}
		40% {
			opacity: 1;
		}
		100% {
			opacity: 0;
		}
	}

	@keyframes scalein {
		0% {
			transform: scale(0) rotate(40deg) perspective(100px) translateZ(10px) rotate3d(1, 0, 0, 10deg);
			opacity: 0;
		}
		20% {
			opacity: 0.2;
		}
		50% {
			transform: scale(1.1);
			opacity: 1;
		}
		100% {
			transform: scale(1);
			opacity: 1;
		}
	}

	.st0, #j {
		opacity: 0;
		--time: 0.4s;
		transform-origin: 65% 40%;
		animation: scalein var(--time) cubic-bezier(0.32, 0, 0.12, 0.8);
		animation-fill-mode: forwards;
	}

	#c { animation-delay: calc(var(--time) * 1 / 7); }
	#h { animation-delay: calc(var(--time) * 2 / 7); }
	#e0 { animation-delay: calc(var(--time) * 3 / 7); }
	#e1 { animation-delay: calc(var(--time) * 4 / 7); }
	#r { animation-delay: calc(var(--time) * 5 / 7); }
	#p { animation-delay: calc(var(--time) * 6 / 7); }
	#j { animation-delay: calc(var(--time) * 7 / 7); }

	@media (prefers-color-scheme: dark) {
		.st0, .st5 {
			fill: #fff;
		}

		#background {
			fill: #231f20;
		}
	}

</style>
<rect id="background" x="0" y="0" width="410" height="253" fill="#fff"/>
<path id="c" class="st0" d="M163.6,108.8c-3.7,3.8-8.9,6-14.2,6c-11.1,0-20.1-9-20-20.1c0-11.1,9-20.1,20.1-20
	c5.3,0,10.3,2.1,14.1,5.8l-5.3,5.4c-4.9-4.9-12.8-4.9-17.7,0c-4.9,4.9-4.9,12.8,0,17.7c2.3,2.3,5.5,3.7,8.9,3.7
	c3.4,0.1,6.6-1.3,8.9-3.7L163.6,108.8z"/>
<path id="h" class="st0" d="M205,114.8h-7.1V94.6c0-7-5.3-12.5-11.8-12.5s-11.7,5.4-11.8,12.4v20.2h-7.1v-60h7.1v24.4
	c3.3-2.8,7.4-4.4,11.8-4.4c10.4,0,18.8,8.9,18.9,20V114.8z"/>
<path id="e0" class="st0" d="M248.5,94.8c-0.1,11-9.2,19.8-20.1,19.7c-11-0.1-19.8-9.2-19.7-20.1c0.1-11,9.2-19.8,20.1-19.7
	c6.5,0.1,12.5,3.3,16.1,8.6l-22.4,22.5c1.8,0.9,3.8,1.4,5.8,1.5c6.9,0.1,12.5-5.3,12.6-12.2c0-0.1,0-0.1,0-0.2H248.5z M217.3,100.3
	l16.9-16.9c-1.8-0.9-3.8-1.4-5.8-1.4c-6.8,0-12.4,5.6-12.4,12.4c0,0.1,0,0.2,0,0.3C216,96.7,216.5,98.6,217.3,100.3z"/>
<path id="e1" class="st0" d="M290,94.8c-0.1,11-9.2,19.8-20.1,19.7c-11-0.1-19.8-9.2-19.7-20.1c0.1-11,9.2-19.8,20.1-19.7
	c6.5,0.1,12.5,3.3,16.1,8.6L264,105.7c1.8,0.9,3.8,1.4,5.8,1.5c6.9,0.1,12.5-5.4,12.6-12.2c0,0,0-0.1,0-0.1H290z M258.7,100.3
	l16.9-16.9c-1.8-0.9-3.8-1.4-5.8-1.4c-6.8,0-12.4,5.6-12.3,12.5c0,0.1,0,0.1,0,0.2C257.5,96.7,257.9,98.6,258.7,100.3z"/>
<path id="r" class="st0" d="M293.5,114.8V75h7.5v4.1c3.6-2.9,8-4.4,12.5-4.4v7.6c-6.9,0-12.5,5.6-12.5,12.4c0,0,0,0,0,0.1v20
	L293.5,114.8z"/>
<path id="p" class="st0" d="M314.1,94.8c0-11,9-20,20-20c11,0,20,9,20,20s-9,20-20,20l0,0c-4.5,0-8.9-1.5-12.4-4.3v23.6h-7.5
	L314.1,94.8z M346.7,94.8c0-6.9-5.6-12.5-12.5-12.5s-12.5,5.6-12.5,12.5l0,0v0.1c0,6.9,5.6,12.5,12.5,12.5
	C341.1,107.3,346.7,101.7,346.7,94.8L346.7,94.8z"/>
<path id="j" class="st1" d="M368.6,75.3h7.5V114c0,11-9,20-20,20v-7.5c6.9,0,12.5-5.5,12.5-12.4c0,0,0-0.1,0-0.1V75.3z M372.4,69.1
	c-2.8,0-5.1-2.3-5.1-5.1c0-2.8,2.3-5.1,5.1-5.1c2.8,0,5.1,2.3,5.1,5.1c0,0,0,0,0,0C377.5,66.8,375.2,69.1,372.4,69.1L372.4,69.1z"/>
<g id="shield">
	<polygon class="st1" points="111.9,50.1 72.2,50.1 72.2,50.1 32.5,50.1 39.9,130.8 72.2,139.9 72.2,139.9 72.2,139.9 72.2,139.9 
		72.2,139.9 104.4,130.8 	"/>
	<path class="st2" d="M77.3,76.3c4.2-0.1,8.4,1.2,11.8,3.7c0.3,0.2,0.7,0.5,1,0.8c0.5,0.4,0.7,1,0.5,1.6c-0.2,0.6-0.7,1.1-1.3,1.2
		c-1.9,0.6-3.8,1.1-5.6,1.8c-4.5,1.9-8.5,4.8-11.7,8.5c-4.4,5.1-10.5,8.5-17.2,9.7c-0.4,0.1-0.7,0.1-1.1,0.2
		c-0.7,0.1-1.4-0.4-1.6-1.1c-0.7-2.2-0.9-4.5-0.6-6.8c0.8-4.8,3.3-9.2,7.2-12.2c4.3-3.6,9.4-6,14.9-7c0.5-0.1,1.1-0.2,1.6-0.2
		C76.1,76.4,76.8,76.4,77.3,76.3z"/>
	<path class="st2" d="M69.2,115.4c-4.7-0.1-8.6-1.1-12-3.8c-0.3-0.2-0.6-0.5-0.8-0.7c-0.6-0.4-0.8-1.1-0.6-1.8
		c0.2-0.6,0.7-1.1,1.4-1.2c1.8-0.6,3.7-1.1,5.5-1.9c4.6-2,8.6-5.1,11.8-8.9c4.5-5.4,10.8-8.9,17.7-10.1c0.9-0.3,1.8,0.2,2.1,1.1
		c0,0.1,0.1,0.2,0.1,0.3c1.3,4.6,0.6,9.6-1.9,13.7c-2.2,3.6-5.2,6.5-8.8,8.7c-3.5,2.2-7.4,3.7-11.5,4.4
		C71,115.3,69.9,115.4,69.2,115.4z"/>
	<polygon class="st3" points="72.4,57.7 72.4,134.1 72.4,134.1 98.6,126.7 105.1,57.7 	"/>
	<path class="st4" d="M88.9,80.9c-0.3-0.3-0.7-0.6-1-0.8c-3.6-2.5-7.9-3.8-12.3-3.7c-0.5,0-1.3,0.1-2.1,0.1c-0.4,0-0.7,0.1-1.1,0.2
		c-0.3,0,0.8,0.1-0.2,0.2V93c3.9-3.2,6.3-5.8,10.6-7.5c1.9-0.7,3.5-1.2,5.5-1.8c0.6-0.1,1-0.6,1.2-1.1
		C89.8,81.9,89.5,81.2,88.9,80.9z"/>
	<path class="st4" d="M93.5,89.6c-0.1-0.9-0.9-1.5-1.8-1.4c-0.1,0-0.2,0-0.3,0.1c-6.8,1.1-13,4.5-17.6,9.7c-0.5,0.5-0.5,1.1-1.4,1.6
		v15.7c3.7-0.7,7.3-2,10.6-4.1c3.6-2,6.6-4.9,8.7-8.3C94.2,98.9,94.8,94.1,93.5,89.6z"/>
</g>
<g id="spinner">
	<g id="_x3C_Radial_Repeat_x3E__00000108291006650894662160000008135899211570740615_">
		<path class="st5" d="M203.9,175.8l-1.3,1.3c-0.7,0.7-1.8,0.7-2.5,0l-7.2-7.2c-0.7-0.7-0.7-1.8,0-2.5l1.3-1.3
			c0.7-0.7,1.8-0.7,2.5,0l7.2,7.2C204.6,173.9,204.6,175.1,203.9,175.8z"/>
	</g>
	<g id="_x3C_Radial_Repeat_x3E__00000008840700847642246400000013539986790767432894_">
		<path class="st5" d="M209.4,177.1h-1.9c-1,0-1.8-0.8-1.8-1.8v-10.2c0-1,0.8-1.8,1.8-1.8h1.9c1,0,1.8,0.8,1.8,1.8v10.2
			C211.2,176.3,210.4,177.1,209.4,177.1z"/>
	</g>
	<g id="_x3C_Radial_Repeat_x3E__00000073694751150073450260000010054263958893849531_">
		<path class="st5" d="M212.4,182l-1.3-1.3c-0.7-0.7-0.7-1.8,0-2.5l7.2-7.2c0.7-0.7,1.8-0.7,2.5,0l1.3,1.3c0.7,0.7,0.7,1.8,0,2.5
			l-7.2,7.2C214.2,182.7,213.1,182.7,212.4,182z"/>
	</g>
	<g id="_x3C_Radial_Repeat_x3E__00000167395024776741401480000016553108497400071819_">
		<path class="st5" d="M211,187.6v-1.9c0-1,0.8-1.8,1.8-1.8H223c1,0,1.8,0.8,1.8,1.8v1.9c0,1-0.8,1.8-1.8,1.8h-10.2
			C211.8,189.3,211,188.5,211,187.6z"/>
	</g>
	<g id="_x3C_Radial_Repeat_x3E__00000085211437196716841160000015263373610026267809_">
		<path class="st5" d="M206.1,190.5l1.3-1.3c0.7-0.7,1.8-0.7,2.5,0l7.2,7.2c0.7,0.7,0.7,1.8,0,2.5l-1.3,1.3c-0.7,0.7-1.8,0.7-2.5,0
			l-7.2-7.2C205.4,192.3,205.4,191.2,206.1,190.5z"/>
	</g>
	<g id="_x3C_Radial_Repeat_x3E__00000087399895049396153390000004849555555641546428_">
		<path class="st5" d="M200.6,189.2h1.9c1,0,1.8,0.8,1.8,1.8v10.2c0,1-0.8,1.8-1.8,1.8h-1.9c-1,0-1.8-0.8-1.8-1.8v-10.2
			C198.8,190,199.6,189.2,200.6,189.2z"/>
	</g>
	<g id="_x3C_Radial_Repeat_x3E__00000065766103154217070550000008105786057598707849_">
		<path class="st5" d="M197.6,184.3l1.3,1.3c0.7,0.7,0.7,1.8,0,2.5l-7.2,7.2c-0.7,0.7-1.8,0.7-2.5,0l-1.3-1.3
			c-0.7-0.7-0.7-1.8,0-2.5l7.2-7.2C195.8,183.6,196.9,183.6,197.6,184.3z"/>
	</g>
	<g id="_x3C_Radial_Repeat_x3E__00000173839163675839207080000013266691367139720841_">
		<path class="st5" d="M199,178.7v1.9c0,1-0.8,1.8-1.8,1.8H187c-1,0-1.8-0.8-1.8-1.8v-1.9c0-1,0.8-1.8,1.8-1.8h10.2
			C198.2,176.9,199,177.7,199,178.7z"/>
	</g>
</g>
</svg>
